<?xml version="1.0" standalone="no"?>
<!DOCTYPE svg PUBLIC "-//W3C//DTD SVG 20010904//EN"
 "http://www.w3.org/TR/2001/REC-SVG-20010904/DTD/svg10.dtd">
<svg version="1.0" xmlns="http://www.w3.org/2000/svg"
 width="1024.000000pt" height="1024.000000pt" viewBox="0 0 1024.000000 1024.000000"
 preserveAspectRatio="xMidYMid meet">
<metadata>
Created by potrace 1.14, written by Peter Selinger 2001-2017
</metadata>
<g transform="translate(0.000000,1024.000000) scale(0.100000,-0.100000)"
fill="#000000" stroke="none">
<path d="M4730 7174 c-1955 -938 -3595 -1724 -3644 -1747 l-89 -42 879 -645
879 -645 3 -1103 c1 -606 6 -1102 10 -1102 4 0 392 182 862 405 470 223 859
404 865 401 5 -2 466 -312 1022 -690 557 -377 1016 -686 1021 -686 4 0 401
1695 882 3768 480 2072 875 3773 878 3780 2 6 0 12 -4 12 -5 0 -1609 -768
-3564 -1706z m2700 629 c0 -19 -1224 -5469 -1230 -5476 -7 -8 -1286 839 -1283
850 1 5 366 827 812 1827 446 1001 810 1821 808 1822 -1 1 -776 -498 -1722
-1108 -946 -610 -1725 -1112 -1732 -1115 -10 -4 -905 659 -911 675 -2 7 5230
2529 5251 2531 4 1 7 -2 7 -6z m-2300 -2615 c-424 -964 -844 -1906 -853 -1914
-13 -13 -879 -436 -882 -432 -1 2 -7 278 -13 613 -9 476 -9 613 1 622 12 11
1757 1153 1763 1153 2 0 -6 -19 -16 -42z"/>
</g>
</svg>
